IKResults
version=1
nRows=16
nColumns=40
inDegrees=yes

Units are S.I. units (second, meters, Newtons, ...)
Angles are in degrees.

endheader
time	pelvis_tilt	pelvis_list	pelvis_rotation	pelvis_tx	pelvis_ty	pelvis_tz	hip_flexion_r	hip_adduction_r	hip_rotation_r	knee_angle_r	knee_angle_r_beta	ankle_angle_r	subtalar_angle_r	mtp_angle_r	hip_flexion_l	hip_adduction_l	hip_rotation_l	knee_angle_l	knee_angle_l_beta	ankle_angle_l	subtalar_angle_l	mtp_angle_l	lumbar_extension	lumbar_bending	lumbar_rotation	arm_flex_r	arm_add_r	arm_rot_r	elbow_flex_r	pro_sup_r	wrist_flex_r	wrist_dev_r	arm_flex_l	arm_add_l	arm_rot_l	elbow_flex_l	pro_sup_l	wrist_flex_l	wrist_dev_l
      0.53000000	     17.88334295	     -0.76580966	     -1.85469358	     -0.71933583	      0.95717452	     -1.44185382	     -4.15254107	     -2.03232743	     -4.79129009	    -54.38302030	     -0.94916276	      4.16079337	    -17.00273161	     16.34821751	    -22.03015229	     -0.55408069	     19.64597706	     -9.26886422	     -0.16177220	      7.23028087	     -6.90529992	     -6.42173337	    -20.66159424	     -0.18568448	     -3.22345423	     -5.12500072	     -8.75723172	     -3.27551581	     15.90916775	     89.95437384	      0.00000000	      0.00000000	      6.78148743	     12.13385311	      6.96005478	     22.81230554	     89.95437384	      0.00000000	      0.00000000
      0.54000000	     17.47072684	     -0.77482801	     -1.68888543	     -0.70967694	      0.95651942	     -1.44264620	     -2.58022472	     -1.98152511	     -5.21927429	    -53.19017331	     -0.92834365	      4.55214633	    -16.76178824	     16.07213048	    -22.15752644	     -0.55411770	     19.67184383	     -9.37510148	     -0.16362639	      7.46435282	     -6.67568552	     -6.32239478	    -20.39497601	     -0.09280753	     -3.41525853	     -5.81645669	     -8.75210614	     -3.26244682	     15.65909040	     89.95437384	      0.00000000	      0.00000000	      7.90995461	     12.42265770	      7.08088905	     23.83780484	     89.95437384	      0.00000000	      0.00000000
      0.55000000	     17.35096630	     -1.51147716	     -0.86182991	     -0.70006059	      0.95628519	     -1.44331882	     -1.76067389	     -0.78328319	     -5.77075672	    -51.23938312	     -0.89429594	      5.42561088	    -16.50706364	     15.88046628	    -22.62693195	      0.45270165	     18.71588843	     -9.48683426	     -0.16557649	      8.38828119	     -6.12049553	     -6.29481004	    -20.50113769	      0.88788717	     -4.16576422	     -6.23003172	     -8.63715838	     -3.69294103	     15.26583871	     89.95437384	      0.00000000	      0.00000000	      8.75204711	     12.74819656	      7.63804175	     25.33315298	     89.95437384	      0.00000000	      0.00000000
      0.56000000	     16.90049804	     -1.46582673	     -0.76038408	     -0.69055525	      0.95512001	     -1.44401135	     -0.20364724	     -0.87833348	     -6.24962057	    -49.83575576	     -0.86979802	      5.69764300	    -16.17494197	     15.59690182	    -22.66584551	      0.38208440	     18.71001772	     -9.64708493	     -0.16837340	      8.60028804	     -5.90845872	     -6.19152622	    -20.20340326	      0.89810562	     -4.26329536	     -6.92409782	     -8.65524383	     -3.67170011	     15.13463222	     89.95437384	      0.00000000	      0.00000000	      9.84556498	     12.96014734	      7.74709991	     26.49450816	     89.95437384	      0.00000000	      0.00000000
      0.57000000	     17.07320481	     -2.25409189	      0.18462506	     -0.68070612	      0.95493582	     -1.44463732	      0.03297817	      0.26092976	     -7.12802264	    -47.31835816	     -0.82586115	      6.11015124	    -15.92561655	     15.46812469	    -23.49461743	      1.46150078	     17.46988011	     -9.62644951	     -0.16801324	      9.51792056	     -4.97436658	     -6.13179438	    -20.58823567	      1.95532453	     -5.07780126	     -7.39461414	     -8.56218862	     -4.09244708	     14.93394368	     89.95437384	      0.00000000	      0.00000000	     10.56048990	     13.24220927	      8.31069928	     28.21541947	     89.95437384	      0.00000000	      0.00000000
      0.58000000	     16.73698483	     -2.60237177	      0.43817756	     -0.67120890	      0.95362051	     -1.44485357	      1.18060602	      0.73093744	     -7.52993641	    -45.33020228	     -0.79116128	      6.57320746	    -15.09495212	     15.07045439	    -23.68847860	      1.87608090	     17.09386872	     -9.77517885	     -0.17060906	     10.19621592	     -4.64702543	     -6.07451115	    -20.44286018	      2.38397661	     -5.31171325	     -7.84425884	     -8.51490072	     -4.30952176	     14.64226612	     89.95437384	      0.00000000	      0.00000000	     11.29553761	     13.52584771	      8.48426374	     29.86549831	     89.95437384	      0.00000000	      0.00000000
      0.59000000	     16.52730489	     -2.92679530	      0.66010265	     -0.66173162	      0.95232647	     -1.44493876	      2.10191087	      1.12259128	     -8.07298973	    -43.17020309	     -0.75346218	      6.69722201	    -14.29406718	     14.70390598	    -23.97552879	      2.26629807	     16.82158151	    -10.00932100	     -0.17469561	     10.94141361	     -4.17376408	     -6.04716676	    -20.44746504	      2.77188494	     -5.47836171	     -8.34910330	     -8.48346199	     -4.59056185	     14.52149259	     89.95437384	      0.00000000	      0.00000000	     12.07370833	     13.77520905	      8.71593618	     31.48222365	     89.95437384	      0.00000000	      0.00000000
      0.60000000	     15.96551031	     -2.74850372	      0.52113634	     -0.65213068	      0.95025312	     -1.44485920	      3.58280134	      0.77557512	     -8.66773277	    -41.32723438	     -0.72129631	      6.72659448	    -13.68777604	     14.40783456	    -23.86696546	      2.02119971	     16.78667003	    -10.32484254	     -0.18020250	     11.15102919	     -3.99234834	     -5.96202727	    -20.04199295	      2.54452112	     -5.34319938	     -9.00187907	     -8.46299084	     -4.58275282	     14.44645533	     89.95437384	      0.00000000	      0.00000000	     12.98863835	     13.92601477	      8.78866933	     32.77585396	     89.95437384	      0.00000000	      0.00000000
      0.61000000	     16.00990775	     -3.40163800	      1.00023065	     -0.64234968	      0.94916053	     -1.44472809	      3.78664116	      1.60073938	     -9.40394467	    -38.37984861	     -0.66985472	      6.64831676	    -12.25201653	     14.04084479	    -24.49612629	      2.85480754	     16.10824235	    -10.49394386	     -0.18315387	     12.32512783	     -3.44552973	     -6.01553110	    -20.30443581	      3.31775113	     -5.81302125	     -9.19965447	     -8.38583006	     -5.04555197	     14.04622063	     89.95437384	      0.00000000	      0.00000000	     13.35482168	     14.24629361	      9.11142502	     34.89973187	     89.95437384	      0.00000000	      0.00000000
      0.62000000	     15.94325787	     -3.63797669	      1.26890501	     -0.63256569	      0.94770091	     -1.44469558	      4.25259960	      1.77047542	    -10.47004150	    -35.71938341	     -0.62342085	      6.29856351	    -11.33150096	     13.68521784	    -25.02899697	      3.16061993	     15.58269623	    -10.60441387	     -0.18508194	     12.84151958	     -2.77686163	     -6.03463510	    -20.44629364	      3.61867826	     -6.02618773	     -9.54291008	     -8.31040417	     -5.44765736	     13.77392873	     89.95437384	      0.00000000	      0.00000000	     13.96560029	     14.42058733	      9.43196959	     36.61931823	     89.95437384	      0.00000000	      0.00000000
      0.63000000	     15.74878219	     -3.79642778	      1.37328809	     -0.62277761	      0.94593738	     -1.44447405	      4.86902363	      1.83681644	    -11.51853446	    -33.10565810	     -0.57780273	      5.80725193	    -10.20777096	     13.12367092	    -25.46591610	      3.30598077	     15.00339291	    -10.68099348	     -0.18641850	     13.33190238	     -1.91850353	     -6.05279211	    -20.45771012	      3.79849002	     -6.12804892	     -9.86630122	     -8.25516441	     -5.77192199	     13.49975427	     89.95437384	      0.00000000	      0.00000000	     14.52804097	     14.55795283	      9.78732989	     38.31314348	     89.95437384	      0.00000000	      0.00000000
      0.64000000	     15.37294683	     -3.91506755	      1.23442891	     -0.61304549	      0.94378897	     -1.44401099	      5.69974795	      1.85543854	    -12.39004471	    -30.59212809	     -0.53393336	      5.16798930	     -9.04961982	     12.68311483	    -25.71569039	      3.32936084	     14.71711616	    -10.78778759	     -0.18828241	     13.98850115	     -1.33116415	     -6.05532452	    -20.30379362	      3.89219577	     -6.07932083	    -10.03747844	     -8.25415026	     -6.04375716	     13.07721793	     89.95437384	      0.00000000	      0.00000000	     14.96686395	     14.66636986	     10.18341393	     40.04813377	     89.95437384	      0.00000000	      0.00000000
      0.65000000	     14.95125573	     -4.02072613	      1.13052314	     -0.60330358	      0.94153103	     -1.44352119	      6.55321128	      1.86878558	    -13.52565890	    -28.06874226	     -0.48989197	      4.29423553	     -7.84677453	     12.26496839	    -25.85739167	      3.38717548	     14.42809283	    -11.00006135	     -0.19198729	     14.53347972	     -0.88666029	     -6.06156613	    -20.09338413	      3.97535481	     -6.02722538	    -10.25695206	     -8.26464784	     -6.20312718	     12.78942991	     89.95437384	      0.00000000	      0.00000000	     15.42886417	     14.71022600	     10.56850645	     41.66470349	     89.95437384	      0.00000000	      0.00000000
      0.66000000	     14.81680558	     -4.13764776	      1.33877922	     -0.59287106	      0.93974956	     -1.44335048	      6.84694115	      1.72548486	    -15.71447351	    -25.20099877	     -0.43984040	      2.08552237	     -6.56167464	      1.61834262	    -26.45800166	      3.48492177	     13.25621701	    -10.93538467	     -0.19085847	     14.98372618	      0.77366333	     -6.99154557	    -20.09997313	      4.16735312	     -6.28716849	    -10.45291927	     -8.23933871	     -6.54435779	     12.44345938	     89.95437384	      0.00000000	      0.00000000	     15.71163367	     14.76662250	     11.02522583	     43.32855317	     89.95437384	      0.00000000	      0.00000000
      0.67000000	     14.42321393	     -4.45179524	      1.25062979	     -0.58266102	      0.93753658	     -1.44245370	      7.52484569	      2.02348850	    -17.28747457	    -22.69318024	     -0.39607071	      1.19259060	     -4.78531239	      1.39132663	    -26.55575891	      3.83322065	     13.17926872	    -11.38209650	     -0.19865506	     15.54265073	      1.03257408	     -6.98009511	    -19.86716087	      4.46518132	     -6.22212863	    -10.61431509	     -8.26672796	     -6.81524094	     12.13777216	     89.95437384	      0.00000000	      0.00000000	     15.97546203	     14.75104479	     11.51821400	     44.88433815	     89.95437384	      0.00000000	      0.00000000
      0.68000000	     14.22850936	     -4.77452945	      1.41052298	     -0.57235824	      0.93560127	     -1.44179869	      7.89934341	      2.25178770	    -19.68687236	    -20.30444000	     -0.35437933	      0.82667184	     -2.12587780	      0.45068319	    -26.78861006	      4.32660096	     12.95906807	    -11.94222714	     -0.20843118	     15.89207522	      1.25123426	     -7.06124842	    -19.82229762	      4.84920874	     -6.34333005	    -10.82139987	     -8.27686220	     -7.02391768	     12.01138562	     89.95437384	      0.00000000	      0.00000000	     16.24761680	     14.76568868	     11.83670200	     46.34065211	     89.95437384	      0.00000000	      0.00000000
